<svg id="Layer_1" data-name="Layer 1" xmlns="http://www.w3.org/2000/svg" viewBox="0 0 312.69 130.7"><defs><style>.cls-1{fill:#fff;}</style></defs><path class="cls-1" d="M12.82,130.65a22.9,22.9,0,0,1-7.32-1.17,15,15,0,0,1-5.5-3l1.77-3.73a15.49,15.49,0,0,0,4.88,2.77,17.63,17.63,0,0,0,6.17,1.1,13.84,13.84,0,0,0,4.73-.67,5.64,5.64,0,0,0,2.68-1.84,4.41,4.41,0,0,0,.86-2.66A3.62,3.62,0,0,0,20,118.65a8.34,8.34,0,0,0-2.92-1.7,32.79,32.79,0,0,0-4-1.12c-1.43-.32-2.87-.7-4.32-1.13a19.22,19.22,0,0,1-4-1.65,8.17,8.17,0,0,1-2.9-2.7A7.93,7.93,0,0,1,.81,106a8.77,8.77,0,0,1,1.37-4.76,9.39,9.39,0,0,1,4.2-3.49,17.3,17.3,0,0,1,7.25-1.32,22.42,22.42,0,0,1,5.79.77,16,16,0,0,1,5,2.2l-1.58,3.82a15.26,15.26,0,0,0-4.54-2.08,17.75,17.75,0,0,0-4.64-.64,12.75,12.75,0,0,0-4.64.71,5.61,5.61,0,0,0-2.65,1.92,4.53,4.53,0,0,0-.84,2.67,3.73,3.73,0,0,0,1.12,2.83,8.09,8.09,0,0,0,2.92,1.67,39.42,39.42,0,0,0,4,1.12c1.43.34,2.87.71,4.33,1.13a18.34,18.34,0,0,1,4,1.62,8.27,8.27,0,0,1,2.89,2.68,7.74,7.74,0,0,1,1.1,4.31,8.55,8.55,0,0,1-1.39,4.71,9.59,9.59,0,0,1-4.28,3.49A17.61,17.61,0,0,1,12.82,130.65Z"/><path class="cls-1" d="M42.66,130.56a14,14,0,0,1-6.91-1.68A12.22,12.22,0,0,1,31,124.29a13.89,13.89,0,0,1,0-13.39,12.17,12.17,0,0,1,4.76-4.57,14.23,14.23,0,0,1,6.91-1.65,13.47,13.47,0,0,1,6.15,1.37,9.65,9.65,0,0,1,4.18,4l-3.49,2.25a7.72,7.72,0,0,0-3-2.75,8.57,8.57,0,0,0-3.85-.89,8.94,8.94,0,0,0-4.44,1.1,8.1,8.1,0,0,0-3.11,3.09,9.18,9.18,0,0,0-1.15,4.71,9.34,9.34,0,0,0,1.15,4.73,8,8,0,0,0,3.11,3.11,8.84,8.84,0,0,0,4.44,1.1,8.56,8.56,0,0,0,3.85-.88,7.8,7.8,0,0,0,3-2.75l3.49,2.2a10,10,0,0,1-4.18,4A13.12,13.12,0,0,1,42.66,130.56Z"/><path class="cls-1" d="M58.44,130.27V104.92h4.4v6.89l-.43-1.72a7.81,7.81,0,0,1,3.54-4,12.49,12.49,0,0,1,6.13-1.39v4.45a3.74,3.74,0,0,0-.55,0H71a7.8,7.8,0,0,0-5.83,2.2c-1.44,1.47-2.15,3.59-2.15,6.37v12.62Z"/><path class="cls-1" d="M88.14,130.56A14.72,14.72,0,0,1,81,128.88a12,12,0,0,1-4.78-4.59,13,13,0,0,1-1.7-6.69,13.39,13.39,0,0,1,1.65-6.7,12,12,0,0,1,4.55-4.57,13.76,13.76,0,0,1,13,0,11.44,11.44,0,0,1,4.42,4.57,14.11,14.11,0,0,1,1.61,6.86c0,.19,0,.42,0,.67s0,.5-.07.72H78.1v-3.3H97.28L95.41,117a8.49,8.49,0,0,0-1-4.36,7.76,7.76,0,0,0-2.89-3,9.06,9.06,0,0,0-8.54,0,7.65,7.65,0,0,0-2.92,3,9.11,9.11,0,0,0-1,4.42v.77a8.75,8.75,0,0,0,1.17,4.52,8,8,0,0,0,3.28,3.08,10.18,10.18,0,0,0,4.83,1.1,10.57,10.57,0,0,0,4.09-.76,9.09,9.09,0,0,0,3.23-2.3l2.53,3a11.16,11.16,0,0,1-4.28,3.06A15,15,0,0,1,88.14,130.56Z"/><path class="cls-1" d="M116.94,130.56a14.7,14.7,0,0,1-7.15-1.68,12,12,0,0,1-4.79-4.59,13,13,0,0,1-1.69-6.69,13.39,13.39,0,0,1,1.65-6.7,11.94,11.94,0,0,1,4.54-4.57,13.76,13.76,0,0,1,13,0,11.53,11.53,0,0,1,4.43,4.57,14.22,14.22,0,0,1,1.6,6.86c0,.19,0,.42,0,.67s0,.5-.07.72H106.89v-3.3h19.18L124.21,117a8.59,8.59,0,0,0-1-4.36,7.69,7.69,0,0,0-2.89-3,9.06,9.06,0,0,0-8.54,0,7.65,7.65,0,0,0-2.92,3,9.11,9.11,0,0,0-1,4.42v.77a8.75,8.75,0,0,0,1.17,4.52,8.06,8.06,0,0,0,3.28,3.08,10.18,10.18,0,0,0,4.83,1.1,10.57,10.57,0,0,0,4.09-.76,9,9,0,0,0,3.23-2.3l2.53,3a11.16,11.16,0,0,1-4.28,3.06A14.89,14.89,0,0,1,116.94,130.56Z"/><path class="cls-1" d="M148,104.68a11.91,11.91,0,0,1,5.47,1.2,8.6,8.6,0,0,1,3.71,3.63,12.78,12.78,0,0,1,1.34,6.17v14.59h-4.59V116.21a7.72,7.72,0,0,0-1.8-5.55,6.66,6.66,0,0,0-5-1.86,9.1,9.1,0,0,0-4.26,1,6.6,6.6,0,0,0-2.8,2.83,9.91,9.91,0,0,0-1,4.63v13.06h-4.59V104.92h4.4v6.84l-.72-1.81a8.86,8.86,0,0,1,3.83-3.88A12.6,12.6,0,0,1,148,104.68Z"/><path class="cls-1" d="M178,130.27V96.79h9.47v26h15.93v7.51Z"/><path class="cls-1" d="M218.71,130.7a16,16,0,0,1-7.55-1.72,13.12,13.12,0,0,1-5.19-4.76,13.67,13.67,0,0,1,0-13.87,13.19,13.19,0,0,1,5.19-4.76,17.5,17.5,0,0,1,15.13,0,13.14,13.14,0,0,1,5.22,4.76,13.67,13.67,0,0,1,0,13.87,13.07,13.07,0,0,1-5.22,4.76A16.19,16.19,0,0,1,218.71,130.7Zm0-7.22a5.3,5.3,0,0,0,2.75-.72,5.08,5.08,0,0,0,2-2.13,7.08,7.08,0,0,0,.75-3.37,6.8,6.8,0,0,0-.75-3.35,5.23,5.23,0,0,0-2-2,5.61,5.61,0,0,0-5.5,0,5.38,5.38,0,0,0-2,2,6.92,6.92,0,0,0-.74,3.35,7.2,7.2,0,0,0,.74,3.37,5.21,5.21,0,0,0,2,2.13A5.33,5.33,0,0,0,218.71,123.48Z"/><path class="cls-1" d="M250.09,130.7a16.08,16.08,0,0,1-7.56-1.72,13.12,13.12,0,0,1-5.19-4.76,13.67,13.67,0,0,1,0-13.87,13.19,13.19,0,0,1,5.19-4.76,16.2,16.2,0,0,1,7.56-1.72,16.37,16.37,0,0,1,7.58,1.72,13.18,13.18,0,0,1,5.21,4.76,13.67,13.67,0,0,1,0,13.87,13.1,13.1,0,0,1-5.21,4.76A16.25,16.25,0,0,1,250.09,130.7Zm0-7.22a5.33,5.33,0,0,0,2.75-.72,5.21,5.21,0,0,0,2-2.13,7.2,7.2,0,0,0,.74-3.37,6.92,6.92,0,0,0-.74-3.35,5.21,5.21,0,0,0-4.71-2.77,5.3,5.3,0,0,0-2.75.72,5.23,5.23,0,0,0-2,2,6.8,6.8,0,0,0-.75,3.35,7.08,7.08,0,0,0,.75,3.37,5.08,5.08,0,0,0,2,2.13A5.3,5.3,0,0,0,250.09,123.48Z"/><path class="cls-1" d="M302.22,103.87a11.5,11.5,0,0,1,5.38,1.24,8.9,8.9,0,0,1,3.73,3.78,13.8,13.8,0,0,1,1.36,6.56v14.82h-9.08V116.93a6.28,6.28,0,0,0-1.06-4,3.51,3.51,0,0,0-2.87-1.27,4.49,4.49,0,0,0-2.36.62,4.19,4.19,0,0,0-1.61,1.89,8.19,8.19,0,0,0-.57,3.32v12.82h-9.09V116.93a6.36,6.36,0,0,0-1-4,3.48,3.48,0,0,0-2.89-1.27,4.55,4.55,0,0,0-2.34.62,4.27,4.27,0,0,0-1.65,1.89,7.82,7.82,0,0,0-.6,3.32v12.82h-9.09v-26h8.71v7.27l-1.72-2.06a9.69,9.69,0,0,1,3.87-4.2,10.88,10.88,0,0,1,5.55-1.44,10.74,10.74,0,0,1,6.17,1.79,9,9,0,0,1,3.54,5.62l-3-.67a11.17,11.17,0,0,1,4.19-4.92A11.52,11.52,0,0,1,302.22,103.87Z"/><path class="cls-1" d="M174.93,0H137.76A18.66,18.66,0,0,0,119.1,18.66V55.83A18.66,18.66,0,0,0,137.76,74.5h37.17a18.66,18.66,0,0,0,18.66-18.67V18.66A18.66,18.66,0,0,0,174.93,0Zm-2.85,32.87a2.35,2.35,0,1,1-2.35-2.34A2.34,2.34,0,0,1,172.08,32.87Zm0,8.76a2.35,2.35,0,1,1-2.35-2.33A2.34,2.34,0,0,1,172.08,41.63Zm-4.39-18.06a2.34,2.34,0,1,1-2.34,2.33A2.33,2.33,0,0,1,167.69,23.57Zm0,13.67a2.35,2.35,0,1,1-2.34-2.33A2.35,2.35,0,0,1,167.69,37.24ZM164.93,31a2.34,2.34,0,1,1-2.33-2.34A2.33,2.33,0,0,1,164.93,31Zm-4.2-9.49a2.35,2.35,0,1,1-2.34,2.35A2.35,2.35,0,0,1,160.73,21.51Zm-.66,15.73a3.73,3.73,0,1,1-3.72-3.72A3.73,3.73,0,0,1,160.07,37.24ZM156.35,25.9A2.35,2.35,0,1,1,154,28.24,2.34,2.34,0,0,1,156.35,25.9ZM152,21.51a2.35,2.35,0,1,1-2.34,2.35A2.34,2.34,0,0,1,152,21.51Zm-1.87,7.15A2.34,2.34,0,1,1,147.75,31,2.33,2.33,0,0,1,150.09,28.66ZM145,23.57a2.34,2.34,0,1,1-2.34,2.33A2.33,2.33,0,0,1,145,23.57Zm.29,9.3A2.34,2.34,0,1,1,143,30.53,2.34,2.34,0,0,1,145.29,32.87Zm-7.6-21.32a7.13,7.13,0,0,0-7.13,7.13V22a1.43,1.43,0,0,1-.41,1,1.38,1.38,0,0,1-1,.42A1.41,1.41,0,0,1,127.75,22v-4.7a8.54,8.54,0,0,1,8.53-8.54H141a1.4,1.4,0,0,1,1,2.39,1.44,1.44,0,0,1-1,.41Zm2.93,30.08A2.34,2.34,0,1,1,143,44,2.33,2.33,0,0,1,140.62,41.63Zm4.38,9.3a2.34,2.34,0,1,1,2.33-2.33A2.34,2.34,0,0,1,145,50.93Zm0-13.69a2.34,2.34,0,1,1,2.33,2.35A2.34,2.34,0,0,1,145,37.24Zm2.75,6.26a2.34,2.34,0,1,1,2.34,2.34A2.33,2.33,0,0,1,147.75,43.5ZM152,53a2.34,2.34,0,1,1,2.34-2.33A2.33,2.33,0,0,1,152,53Zm4.39-4.37a2.35,2.35,0,1,1,2.33-2.34A2.35,2.35,0,0,1,156.35,48.6ZM160.73,53a2.34,2.34,0,1,1,2.34-2.33A2.33,2.33,0,0,1,160.73,53Zm1.87-7.13a2.34,2.34,0,1,1,2.33-2.34A2.34,2.34,0,0,1,162.6,45.84Zm5.09,5.09A2.34,2.34,0,1,1,170,48.6,2.33,2.33,0,0,1,167.69,50.93ZM185,57.42A8.53,8.53,0,0,1,176.41,66h-4.69a1.4,1.4,0,0,1-1-2.39,1.38,1.38,0,0,1,1-.42H175A7.11,7.11,0,0,0,182.14,56V52.72a1.41,1.41,0,0,1,.41-1h0a1.4,1.4,0,0,1,2.39,1Z"/></svg>