<svg id="Layer_1" data-name="Layer 1" xmlns="http://www.w3.org/2000/svg" viewBox="0 0 74.49 74.5"><defs><style>.cls-1{fill:#8642f5;}</style></defs><path class="cls-1" d="M55.83,0H18.66A18.66,18.66,0,0,0,0,18.66V55.83A18.66,18.66,0,0,0,18.66,74.5H55.83A18.66,18.66,0,0,0,74.49,55.83V18.66A18.66,18.66,0,0,0,55.83,0ZM53,32.87a2.34,2.34,0,1,1-2.34-2.34A2.33,2.33,0,0,1,53,32.87Zm0,8.76a2.34,2.34,0,1,1-2.34-2.33A2.33,2.33,0,0,1,53,41.63ZM48.59,23.57a2.34,2.34,0,1,1-2.35,2.33A2.34,2.34,0,0,1,48.59,23.57Zm0,13.67a2.35,2.35,0,1,1-2.35-2.33A2.35,2.35,0,0,1,48.59,37.24ZM45.83,31a2.34,2.34,0,1,1-2.33-2.34A2.34,2.34,0,0,1,45.83,31Zm-4.2-9.49a2.35,2.35,0,1,1-2.34,2.35A2.34,2.34,0,0,1,41.63,21.51ZM41,37.24a3.74,3.74,0,1,1-3.73-3.72A3.73,3.73,0,0,1,41,37.24ZM37.24,25.9a2.35,2.35,0,1,1-2.34,2.34A2.33,2.33,0,0,1,37.24,25.9Zm-4.38-4.39a2.35,2.35,0,1,1-2.35,2.35A2.35,2.35,0,0,1,32.86,21.51ZM31,28.66A2.34,2.34,0,1,1,28.64,31,2.34,2.34,0,0,1,31,28.66ZM25.9,23.57a2.34,2.34,0,1,1-2.34,2.33A2.34,2.34,0,0,1,25.9,23.57Zm.29,9.3a2.34,2.34,0,1,1-2.35-2.34A2.34,2.34,0,0,1,26.19,32.87ZM18.58,11.55a7.14,7.14,0,0,0-7.13,7.13V22A1.38,1.38,0,0,1,11,23a1.34,1.34,0,0,1-1,.42A1.41,1.41,0,0,1,8.65,22v-4.7a8.53,8.53,0,0,1,8.53-8.54h4.71a1.4,1.4,0,0,1,0,2.8Zm2.93,30.08A2.34,2.34,0,1,1,23.84,44,2.34,2.34,0,0,1,21.51,41.63Zm4.39,9.3a2.34,2.34,0,1,1,2.33-2.33A2.33,2.33,0,0,1,25.9,50.93Zm0-13.69a2.34,2.34,0,1,1,2.33,2.35A2.34,2.34,0,0,1,25.9,37.24Zm2.74,6.26A2.35,2.35,0,1,1,31,45.84,2.34,2.34,0,0,1,28.64,43.5ZM32.86,53a2.34,2.34,0,1,1,2.34-2.33A2.34,2.34,0,0,1,32.86,53Zm4.38-4.37a2.35,2.35,0,1,1,2.33-2.34A2.34,2.34,0,0,1,37.24,48.6ZM41.63,53A2.34,2.34,0,1,1,44,50.64,2.33,2.33,0,0,1,41.63,53Zm1.87-7.13a2.34,2.34,0,1,1,2.33-2.34A2.33,2.33,0,0,1,43.5,45.84Zm5.09,5.09a2.34,2.34,0,1,1,2.34-2.33A2.34,2.34,0,0,1,48.59,50.93Zm17.26,6.49A8.53,8.53,0,0,1,57.31,66h-4.7a1.4,1.4,0,0,1-1-2.39,1.38,1.38,0,0,1,1-.42h3.31A7.11,7.11,0,0,0,63,56V52.72a1.41,1.41,0,0,1,.41-1h0a1.4,1.4,0,0,1,2.39,1Z"/></svg>